<?xml version="1.0" standalone="no"?><!DOCTYPE svg PUBLIC "-//W3C//DTD SVG 1.1//EN" "http://www.w3.org/Graphics/SVG/1.1/DTD/svg11.dtd"><svg t="1691053931930" class="icon" viewBox="0 0 1024 1024" version="1.1" xmlns="http://www.w3.org/2000/svg" p-id="7653" xmlns:xlink="http://www.w3.org/1999/xlink" width="200" height="200"><path d="M614.4 486.4c-4.266667 0-4.266667 0-8.533333-4.266667l-38.4-59.733333v-8.533333l38.4-42.666667c4.266667-4.266667 8.533333-4.266667 12.8 0 4.266667 4.266667 4.266667 8.533333 0 12.8l-34.133334 38.4 34.133334 51.2c4.266667 4.266667 0 8.533333-4.266667 12.8 4.266667 0 0 0 0 0zM409.6 486.4h-4.266667c-4.266667-4.266667-4.266667-8.533333-4.266666-12.8l34.133333-51.2-29.866667-42.666667c-4.266667-4.266667-4.266667-8.533333 0-12.8 4.266667-4.266667 8.533333-4.266667 12.8 0l38.4 42.666667c4.266667 4.266667 4.266667 8.533333 0 8.533333l-38.4 59.733334c-4.266667 4.266667-4.266667 8.533333-8.533333 8.533333zM520.533333 605.866667s-4.266667 0 0 0c-51.2-21.333333-51.2-72.533333-51.2-76.8 0-4.266667 4.266667-8.533333 8.533334-8.533334h93.866666c4.266667 0 8.533333 4.266667 8.533334 8.533334-4.266667 55.466667-55.466667 76.8-59.733334 76.8z m-38.4-68.266667c0 12.8 8.533333 38.4 34.133334 51.2 8.533333-4.266667 34.133333-17.066667 38.4-51.2h-72.533334z" fill="" p-id="7654"></path><path d="M567.466667 563.2m-230.4 0a230.4 230.4 0 1 0 460.8 0 230.4 230.4 0 1 0-460.8 0Z" fill="#FAD0C4" p-id="7655"></path><path d="M512 802.133333c-170.666667 0-307.2-110.933333-307.2-247.466666C204.8 418.133333 341.333333 307.2 512 307.2s307.2 110.933333 307.2 247.466667c0 136.533333-136.533333 247.466667-307.2 247.466666z m0-465.066666c-149.333333 0-273.066667 98.133333-273.066667 217.6s123.733333 217.6 273.066667 217.6 273.066667-98.133333 273.066667-217.6-123.733333-217.6-273.066667-217.6z" fill="#775742" p-id="7656"></path><path d="M311.466667 392.533333h-4.266667c-12.8-4.266667-17.066667-12.8-12.8-21.333333l42.666667-132.266667c4.266667-8.533333 12.8-17.066667 25.6-17.066666s21.333333 4.266667 25.6 12.8l38.4 68.266666c4.266667 8.533333 0 17.066667-8.533334 21.333334-8.533333 4.266667-17.066667 0-21.333333-8.533334l-34.133333-55.466666-38.4 119.466666c0 8.533333-8.533333 12.8-12.8 12.8zM712.533333 392.533333c-8.533333 0-12.8-4.266667-17.066666-12.8l-38.4-119.466666-29.866667 59.733333c-4.266667 8.533333-12.8 12.8-21.333333 8.533333-8.533333-4.266667-12.8-17.066667-8.533334-25.6l38.4-68.266666c4.266667-8.533333 17.066667-17.066667 25.6-12.8 12.8 0 21.333333 8.533333 25.6 17.066666l42.666667 132.266667c4.266667 8.533333 0 17.066667-8.533333 21.333333h-8.533334z" fill="#775742" p-id="7657"></path><path d="M132.266667 554.666667c-4.266667 0-8.533333 0-8.533334-4.266667s4.266667-8.533333 8.533334-8.533333l166.4-17.066667c4.266667 0 8.533333 4.266667 8.533333 8.533333s-4.266667 8.533333-8.533333 8.533334l-166.4 12.8zM166.4 640c-4.266667 0-4.266667 0-8.533333-4.266667 0-4.266667 0-8.533333 4.266666-12.8l128-59.733333c4.266667 0 8.533333 0 12.8 4.266667 0 4.266667 0 8.533333-4.266666 12.8L166.4 640c4.266667 0 0 0 0 0zM857.6 640s-4.266667 0 0 0L725.333333 584.533333c-4.266667 0-4.266667-8.533333-4.266666-12.8 0-4.266667 8.533333-4.266667 12.8-4.266666l128 59.733333c4.266667 0 4.266667 8.533333 4.266666 12.8h-8.533333zM891.733333 554.666667l-166.4-17.066667c-4.266667 0-8.533333-4.266667-8.533333-8.533333s4.266667-8.533333 8.533333-8.533334l166.4 17.066667c4.266667 0 8.533333 4.266667 8.533334 8.533333 0 8.533333-4.266667 8.533333-8.533334 8.533334z" fill="#FAD0C4" p-id="7658"></path></svg>